<svg xmlns="http://www.w3.org/2000/svg" viewBox="0 0 48 48"><defs><style>.cls-1{fill:#c6c3d8;}.cls-2{fill:#dad7e5;}.cls-3{fill:#374f68;}.cls-4{fill:#425b72;}.cls-5{fill:#fc6;}.cls-6{fill:#ffde76;}.cls-7{fill:#db5669;}.cls-8{fill:#f26674;}.cls-9{fill:#919191;}.cls-10{fill:#7c7d7d;}</style></defs><title>Mastercard</title><g id="Mastercard"><path class="cls-1" d="M47,15c0,21.5.21,20.69-.54,22A4,4,0,0,1,43,39H5a4,4,0,0,1-4-4V15Z"/><path class="cls-2" d="M47,15c0,21.5.21,20.69-.54,22H13a4,4,0,0,1-4-4V15Z"/><path class="cls-3" d="M47,13v2H1V13A4,4,0,0,1,5,9H43A4,4,0,0,1,47,13Z"/><path class="cls-4" d="M47,13v2H9V13a4,4,0,0,1,4-4H43A4,4,0,0,1,47,13Z"/><path class="cls-5" d="M43,30a5,5,0,0,1-8,4,5,5,0,0,0,0-8A5,5,0,0,1,43,30Z"/><path class="cls-6" d="M38,25a4.94,4.94,0,0,0-3,1,4.34,4.34,0,0,1,.63.58A5,5,0,0,1,40.7,34.2,5,5,0,0,0,38,25Z"/><circle class="cls-7" cx="32" cy="30" r="5"/><path class="cls-8" d="M35,26a5,5,0,0,0-7.2,1.3,5,5,0,0,1,6.91,6.88A5,5,0,0,0,35,26Z"/><path class="cls-9" d="M13,21v2a2,2,0,0,1-2,2H9V19h2A2,2,0,0,1,13,21Z"/><path class="cls-10" d="M9,19v6H7a2,2,0,0,1-2-2V21a2,2,0,0,1,2-2Z"/><path class="cls-4" d="M19,32H9V30H19A1,1,0,0,1,19,32Z"/><path class="cls-3" d="M9,30v2H5a1,1,0,0,1,0-2Z"/><path class="cls-4" d="M13,36H10.36a4,4,0,0,1-1.23-2H13A1,1,0,0,1,13,36Z"/><path class="cls-3" d="M10.36,36H5a1,1,0,0,1,0-2H9.13A4,4,0,0,0,10.36,36Z"/></g></svg>